<?xml version="1.0" encoding="UTF-8" standalone="no"?>
<!DOCTYPE svg PUBLIC "-//W3C//DTD SVG 1.1//EN" "http://www.w3.org/Graphics/SVG/1.1/DTD/svg11.dtd">
<svg width="100%" height="100%" viewBox="0 0 123 513" version="1.1" xmlns="http://www.w3.org/2000/svg" xmlns:xlink="http://www.w3.org/1999/xlink" xml:space="preserve" xmlns:serif="http://www.serif.com/" style="fill-rule:evenodd;clip-rule:evenodd;stroke-linecap:round;stroke-linejoin:round;stroke-miterlimit:1.5;">
    <g transform="matrix(1,0,0,1,-113448,-14223.4)">
        <g transform="matrix(0.903501,0,0,0.60959,10442.6,5862.91)">
            <g transform="matrix(-1.10681,3.32991e-14,-2.2407e-14,-1.64045,177027,59345.9)">
                <g transform="matrix(-0.157733,0,0,-0.0953583,65021,29386.8)">
                    <path d="M51350.5,19488C51575,19784.3 51360.5,20054.4 51390.2,20371.2C51404,20518.6 51502.4,20647.7 51531,20793.6" style="fill:none;stroke:rgb(207,9,110);stroke-width:103.5px;"/>
                </g>
                <g transform="matrix(0.157733,0,0,-0.0953583,48729.7,29386.8)">
                    <path d="M51350.5,19488C51575,19784.3 51360.5,20054.4 51390.2,20371.2C51404,20518.6 51502.4,20647.7 51531,20793.6" style="fill:none;stroke:rgb(207,9,110);stroke-width:103.5px;"/>
                </g>
                <g transform="matrix(0.157733,0,0,0.157733,48930.9,24304.1)">
                    <circle cx="50378.5" cy="19406.5" r="388.5" style="fill:rgb(245,24,137);"/>
                </g>
            </g>
        </g>
        <g transform="matrix(0.903501,0,0,0.60959,10442.6,5862.91)">
            <g transform="matrix(-1.10681,-3.32991e-14,-2.2407e-14,1.64045,177027,-31075.5)">
                <g transform="matrix(-0.157733,0,0,-0.0953583,65021,29386.8)">
                    <path d="M51350.5,19488C51575,19784.3 51360.5,20054.4 51390.2,20371.2C51404,20518.6 51502.4,20647.7 51531,20793.6" style="fill:none;stroke:rgb(207,9,110);stroke-width:103.5px;"/>
                </g>
                <g transform="matrix(0.157733,0,0,-0.0953583,48729.7,29386.8)">
                    <path d="M51350.5,19488C51575,19784.3 51360.5,20054.4 51390.2,20371.2C51404,20518.6 51502.4,20647.7 51531,20793.6" style="fill:none;stroke:rgb(207,9,110);stroke-width:103.5px;"/>
                </g>
                <g transform="matrix(0.157733,0,0,0.157733,48930.9,24304.1)">
                    <circle cx="50378.5" cy="19406.5" r="388.5" style="fill:rgb(245,24,137);"/>
                </g>
            </g>
        </g>
    </g>
</svg>
