<?xml version="1.0" encoding="UTF-8" standalone="no"?><!DOCTYPE svg PUBLIC "-//W3C//DTD SVG 1.1//EN" "http://www.w3.org/Graphics/SVG/1.1/DTD/svg11.dtd"><svg width="100%" height="100%" viewBox="0 0 8969 10974" version="1.1" xmlns="http://www.w3.org/2000/svg" xmlns:xlink="http://www.w3.org/1999/xlink" xml:space="preserve" xmlns:serif="http://www.serif.com/" style="fill-rule:evenodd;clip-rule:evenodd;stroke-linejoin:round;stroke-miterlimit:2;"><g><g><path d="M3920.32,2257.08c50.099,306.701 147.481,1214.12 156.272,1358.19c14.522,237.987 43.638,453.784 50.265,692.43c6.339,228.299 160.214,687.17 145.638,718.857c-44.504,96.747 -343.728,-65.47 -400.581,-84.785c-278.551,-94.634 -461.491,-417.404 -545.144,-690.187c-173.524,-565.842 -271.122,-1321.26 -122.918,-1918.99c87.656,-353.527 524.289,-339.858 716.468,-75.524Z" style="fill:#f970b6;"/><path d="M4982.34,1865.72c-50.1,306.702 -147.482,1214.12 -156.273,1358.19c-14.522,237.986 -1.5,536.252 -8.127,774.899c-6.339,228.298 -14.576,599.753 0,631.44c44.504,96.747 155.953,-60.522 212.806,-79.837c278.551,-94.634 461.49,-417.404 545.144,-690.188c173.523,-565.842 187.567,-1305.21 122.918,-1918.98c-36.598,-347.46 -432.538,-328.956 -716.468,-75.525Z" style="fill:#f970b6;"/><path d="M4638.13,939.019c63.767,-174.122 145.471,-380.436 121.833,-570.836c-48.14,-387.747 -777.503,-514.872 -914.841,-157.536c-106.367,276.751 140.934,588.134 230.509,826.871c168.469,449.008 164.065,1718.77 111.056,2213.31c-83.794,781.739 -552.841,1411.79 -821.45,2126.42c-3.982,10.593 -25.508,50.613 -21.78,61.067c0.633,1.777 113.099,-83.522 123.749,-93.258c248.42,-227.09 438.096,-552.565 637.399,-826.371c9.838,-13.516 40.877,-52.013 50.193,-65.536c107.99,-156.774 436.284,-216.769 540.149,-107.278c5.191,5.472 142.007,208.321 155.585,219.701c46.034,38.585 378.354,423.56 396.712,429.447c15.962,5.119 120.959,-184.411 124.002,-189.693c55.897,-97.038 134.054,-229.183 137.448,-343.871c6.524,-220.44 -463.092,-346.74 -592.493,-455.804c-148.613,-125.257 -122.395,-123.945 -221.254,-298.711c-232.369,-410.787 -168.959,-2461.7 -56.817,-2767.92Z" style="fill:#df87f5;"/><path d="M431.877,10695.1c-110.409,267.107 504.815,116.888 880.971,10.39c208.331,-58.983 405.729,-153.676 610.319,-225.492c475.79,-167.014 1401.41,100.062 1757.68,-163.757c115.207,-85.312 231.177,-231.54 292.201,-371.66c101.558,-233.189 118.438,-502.419 148.691,-753.845c52.316,-434.786 175.195,-1333.93 -567.742,-911.687c-105.218,59.8 -203.529,133.102 -293.576,215.501c-180.287,164.973 -335.83,369.618 -488.094,562.795c-227.294,288.367 -434.44,590.998 -650.634,888.087c-111.28,152.92 -382.933,165.609 -548.07,257.331c-205.813,114.315 -924.507,409.843 -1141.74,492.337Z" style="fill:#f970b6;"/><path d="M8828.51,10845c-43.76,293.826 -3501.94,99.461 -3952.33,-743.726c-532.533,-996.973 10.485,-2888.55 0,-3318.25c-7.707,-315.834 -64.491,-707.417 -72.017,-1023.63c-8.837,-371.312 -128.7,-1380.92 169.191,-1308.28c65.669,16.014 138.485,-4.885 191.702,26.501c400.452,236.171 561.67,1020.9 653.386,1454.6c88.342,417.744 154.092,830.987 176.985,1257.32c36.556,680.779 2908.07,2977.01 2833.08,3655.46Z" style="fill:#f970b6;"/><path d="M3922.34,2257.73c-102.056,-325.084 -464.115,-676.432 -798.398,-437.589c-522.083,373.025 -2068.04,3373.32 -2336.47,4098.75c-142.764,385.816 -170.462,801.838 -274.166,1198.42c-197.354,754.715 -1027.1,3266.38 -37.533,3715.36c253.985,115.237 1102.06,-478.18 1361.05,-607.047c653.06,-324.954 1198.71,-317.068 1793.69,-567.172c728.168,-306.088 624.329,-1776.84 648.8,-2403.41c17.114,-438.201 70.416,-873.239 87.13,-1311.35c15.445,-404.836 -36.308,-784.448 -151.792,-1170.14c-9.324,-31.138 -18.858,-62.245 -28.946,-93.121c-118.957,-364.095 -1024.5,-2230.45 -616.735,-2458.52c98.796,-55.258 260.348,-8.748 351.294,50.541" style="fill:#fb9dcd;"/><path d="M4980.04,1865.77c704.205,-664.644 1604.86,542.932 2015.19,1087.4c440.028,583.879 739.642,1252.65 1000.29,1941.07c533.266,1408.45 1017.65,4553.97 970.057,5559.57c-14.734,311.332 -141.728,495.848 -308.124,441.668c-177.662,-57.849 -585.031,-646.144 -757.847,-788.76c-220.29,-181.793 -477.693,-369.186 -736.635,-486.476c-213.09,-96.52 -458.618,-188.899 -695.073,-188.066c-303.821,1.07 -633.389,146.785 -930.216,10.796c-24.077,-11.031 -46.485,-25.922 -67.424,-42.463c-74.851,-59.13 -126.558,-137.469 -156.221,-230.542c-144.489,-453.365 206.343,-1022.75 156.097,-1514.94c-88.53,-867.208 -565.722,-1641.44 -676.852,-2514.05c-61.5,-482.908 12.101,-1074.18 99.465,-1563.04c3.475,-19.445 6.911,-38.949 10.873,-58.292c4.891,-23.872 10.16,-47.678 15.503,-71.443c37.322,-166.005 833.865,-1787.46 60.918,-1582.42Z" style="fill:#fb9dcd;"/><path d="M3750.37,135.131c85.108,389.006 304.797,744.278 366.356,1138.5c43.105,276.039 9.845,564.377 4.486,841.96c-12.627,653.956 -53.033,1306.12 -56.366,1960.42c-1.583,310.812 -65.091,858.282 319.337,931.128c54.187,10.268 143.622,31.642 197.007,10.266c333.893,-133.697 137.605,-1736.35 109.599,-1981.95c-43.076,-377.757 -51.369,-756.761 -65.04,-1136.59c-9.155,-254.362 -37.07,-521.599 7.271,-773.734c54.226,-308.344 212.838,-585.849 222.741,-904.35c1.797,-57.813 45.022,44.608 -0,-0c-202.004,-200.147 -861.541,-76.32 -1105.39,-85.651Z" style="fill:none;"/></g></g></svg>