<?xml version="1.0" encoding="UTF-8" standalone="no"?><!DOCTYPE svg PUBLIC "-//W3C//DTD SVG 1.1//EN" "http://www.w3.org/Graphics/SVG/1.1/DTD/svg11.dtd"><svg width="100%" height="100%" viewBox="0 0 8769 8993" version="1.1" xmlns="http://www.w3.org/2000/svg" xmlns:xlink="http://www.w3.org/1999/xlink" xml:space="preserve" xmlns:serif="http://www.serif.com/" style="fill-rule:evenodd;clip-rule:evenodd;stroke-linecap:square;stroke-miterlimit:1.5;"><path d="M4239.06,280.153c2312.83,-77.603 4282.19,1735.94 4395.06,4047.32c112.871,2311.38 -1673.22,4250.93 -3986.05,4328.53c-2312.83,77.603 -4282.19,-1735.94 -4395.06,-4047.32c-112.872,-2311.38 1673.22,-4250.93 3986.05,-4328.53Zm0,0c2312.83,-77.603 4282.19,1735.94 4395.06,4047.32c112.871,2311.38 -1673.22,4250.93 -3986.05,4328.53c-2312.83,77.603 -4282.19,-1735.94 -4395.06,-4047.32c-112.872,-2311.38 1673.22,-4250.93 3986.05,-4328.53Z" style="fill:none;stroke:#000;stroke-width:143.44px;"/><path d="M1817.35,757.078l520.53,749.959c-704.472,464.695 -1218.53,1157.56 -1453.88,1959.61l-884,-260.058c294.192,-1002.55 936.762,-1868.64 1817.35,-2449.51Z" style="fill:#e1b6f9;"/><path d="M4931.21,8992.23l-102.242,-897.071c1409.29,-135.668 2602.43,-1054.51 3066.63,-2361.62l868.899,306.666c-580.252,1633.89 -2071.67,2782.44 -3833.29,2952.03Z" style="fill:#f51889;"/><g transform="matrix(0.997562,-0.0697855,0.0850029,0.996497,-91532.8,-31360)"><g transform="matrix(693.817,-349.249,374.686,744.349,94335.5,46446.1)"><path d="M0.286,-0.285l-0.076,0.082l-0,0.203l-0.147,-0l0,-0.711l0.147,0l-0,0.322l0.064,-0.088l0.182,-0.234l0.18,0l-0.253,0.316l0.26,0.395l-0.174,-0l-0.183,-0.285Z" style="fill-rule:nonzero;"/></g><g transform="matrix(650.25,-424.89,455.836,697.609,94861.5,46176.8)"><path d="M0.36,-0c-0.006,-0.013 -0.011,-0.028 -0.014,-0.047c-0.034,0.038 -0.078,0.057 -0.133,0.057c-0.052,-0 -0.095,-0.015 -0.129,-0.045c-0.034,-0.03 -0.051,-0.068 -0.051,-0.113c0,-0.056 0.021,-0.099 0.062,-0.129c0.042,-0.03 0.102,-0.045 0.18,-0.046l0.065,0l0,-0.03c0,-0.024 -0.006,-0.044 -0.019,-0.059c-0.012,-0.014 -0.032,-0.022 -0.059,-0.022c-0.024,0 -0.042,0.006 -0.056,0.017c-0.013,0.012 -0.02,0.028 -0.02,0.047l-0.141,0c-0,-0.03 0.009,-0.059 0.028,-0.085c0.019,-0.026 0.046,-0.046 0.08,-0.061c0.035,-0.015 0.074,-0.022 0.117,-0.022c0.065,-0 0.116,0.016 0.154,0.049c0.039,0.033 0.058,0.079 0.058,0.138l-0,0.229c0,0.05 0.007,0.088 0.021,0.114l-0,0.008l-0.143,0Zm-0.116,-0.098c0.02,-0 0.04,-0.005 0.057,-0.014c0.018,-0.009 0.031,-0.022 0.039,-0.037l0,-0.091l-0.052,-0c-0.071,-0 -0.109,0.024 -0.113,0.073l-0.001,0.008c0,0.018 0.007,0.032 0.019,0.044c0.012,0.011 0.029,0.017 0.051,0.017Z" style="fill-rule:nonzero;"/></g><g transform="matrix(597.934,-495.814,531.925,641.483,95289,45893.7)"><path d="M0.184,-0.528l0.004,0.061c0.038,-0.047 0.089,-0.071 0.152,-0.071c0.056,-0 0.098,0.016 0.125,0.049c0.028,0.033 0.042,0.082 0.042,0.148l0,0.341l-0.141,0l0,-0.338c0,-0.03 -0.006,-0.051 -0.019,-0.065c-0.013,-0.014 -0.035,-0.02 -0.065,-0.02c-0.04,-0 -0.07,0.017 -0.09,0.05l0,0.373l-0.141,0l0,-0.528l0.133,-0Z" style="fill-rule:nonzero;"/></g><g transform="matrix(529.916,-567.931,609.294,568.511,95698.1,45553.2)"><path d="M0.327,-0.26l-0.117,-0l-0,0.26l-0.147,-0l0,-0.711l0.265,0c0.084,0 0.148,0.019 0.194,0.056c0.046,0.038 0.068,0.091 0.068,0.159c0,0.048 -0.01,0.089 -0.031,0.121c-0.021,0.033 -0.053,0.058 -0.096,0.078l0.154,0.29l0,0.007l-0.157,-0l-0.133,-0.26Zm-0.117,-0.119l0.118,0c0.037,0 0.065,-0.009 0.086,-0.028c0.02,-0.019 0.03,-0.044 0.03,-0.077c-0,-0.034 -0.01,-0.06 -0.029,-0.079c-0.019,-0.02 -0.048,-0.029 -0.087,-0.029l-0.118,-0l-0,0.213Z" style="fill-rule:nonzero;"/></g></g><path d="M13.884,5455.03l895.462,-193.004c194.366,818.236 672.422,1548.49 1352.06,2065.34l-557.445,709.339c-849.553,-646.063 -1447.12,-1558.88 -1690.08,-2581.67Z" style="fill:#06d7fc;"/><path d="M8728.61,2991.53l-861.721,303.068c-234.608,-620.463 -637.305,-1168.37 -1164.35,-1584.22l570.634,-699.123c658.811,519.81 1162.18,1204.7 1455.44,1980.28Z" style="fill:#e1b6f9;"/><path d="M6575.11,554.982l-431.022,790.378c-583.691,-311.383 -1240.04,-464.023 -1900.06,-441.877c-637.388,21.387 -1255.87,205.036 -1794.68,532.905l-492.661,-767.621c673.513,-409.836 1446.62,-639.398 2243.35,-666.131c825.023,-27.683 1645.45,163.117 2375.07,552.346Z" style="fill:#fbc104;"/><path d="M6959.17,1129.55c-214.631,-421.194 -312.673,-549.969 -511.701,-978.84l-613.574,1500.36l1125.28,-521.518Z" style="fill:#fbc104;"/><g transform="matrix(0.691748,0.722139,-0.720714,0.693236,-28633,-94744.7)"><g transform="matrix(382.278,-786.86,749.557,364.155,90831.7,43592.9)"><path d="M0.432,-0.187c0,-0.027 -0.01,-0.048 -0.029,-0.063c-0.02,-0.015 -0.055,-0.031 -0.106,-0.047c-0.05,-0.016 -0.091,-0.033 -0.12,-0.049c-0.081,-0.043 -0.121,-0.102 -0.121,-0.176c-0,-0.038 0.01,-0.073 0.032,-0.103c0.022,-0.03 0.053,-0.053 0.093,-0.07c0.041,-0.017 0.086,-0.026 0.137,-0.026c0.051,0 0.096,0.01 0.136,0.028c0.039,0.018 0.07,0.044 0.092,0.078c0.022,0.033 0.033,0.071 0.033,0.114l-0.146,0c-0,-0.033 -0.011,-0.058 -0.031,-0.076c-0.021,-0.018 -0.049,-0.027 -0.087,-0.027c-0.035,-0 -0.063,0.008 -0.083,0.023c-0.02,0.015 -0.03,0.035 -0.03,0.06c0,0.023 0.012,0.042 0.035,0.058c0.023,0.015 0.058,0.03 0.103,0.044c0.083,0.025 0.144,0.056 0.182,0.093c0.038,0.037 0.057,0.083 0.057,0.139c0,0.061 -0.023,0.109 -0.07,0.145c-0.046,0.034 -0.109,0.052 -0.188,0.052c-0.054,-0 -0.104,-0.01 -0.149,-0.03c-0.045,-0.02 -0.079,-0.048 -0.103,-0.083c-0.024,-0.034 -0.035,-0.075 -0.035,-0.121l0.147,0c-0,0.079 0.047,0.118 0.14,0.118c0.035,0 0.062,-0.007 0.082,-0.021c0.019,-0.014 0.029,-0.034 0.029,-0.06Z" style="fill-rule:nonzero;"/></g><g transform="matrix(475.222,-734.473,699.653,452.692,91086.6,43080.2)"><path d="M0.371,-0.054c-0.035,0.043 -0.083,0.064 -0.145,0.064c-0.057,-0 -0.1,-0.017 -0.13,-0.049c-0.029,-0.033 -0.045,-0.08 -0.045,-0.143l-0,-0.346l0.141,-0l-0,0.341c-0,0.055 0.025,0.083 0.075,0.083c0.048,-0 0.081,-0.017 0.099,-0.05l-0,-0.374l0.141,-0l0,0.528l-0.132,-0l-0.004,-0.054Z" style="fill-rule:nonzero;"/></g><g transform="matrix(553.768,-677.22,645.115,527.515,91375.8,42641.7)"><path d="M0.34,-0.146c0,-0.017 -0.008,-0.031 -0.026,-0.041c-0.016,-0.01 -0.044,-0.019 -0.082,-0.026c-0.125,-0.027 -0.188,-0.08 -0.188,-0.161c-0,-0.046 0.019,-0.085 0.058,-0.117c0.039,-0.031 0.09,-0.047 0.153,-0.047c0.067,-0 0.12,0.016 0.161,0.047c0.04,0.032 0.06,0.073 0.06,0.123l-0.141,0c-0,-0.02 -0.007,-0.036 -0.02,-0.049c-0.013,-0.014 -0.033,-0.02 -0.061,-0.02c-0.023,-0 -0.042,0.005 -0.055,0.016c-0.013,0.01 -0.019,0.024 -0.019,0.041c-0,0.015 0.007,0.028 0.022,0.038c0.015,0.009 0.04,0.017 0.075,0.025c0.035,0.006 0.065,0.014 0.089,0.023c0.074,0.027 0.112,0.075 0.112,0.142c-0,0.048 -0.021,0.087 -0.062,0.117c-0.042,0.03 -0.095,0.045 -0.161,0.045c-0.044,-0 -0.083,-0.008 -0.118,-0.024c-0.034,-0.016 -0.061,-0.037 -0.08,-0.065c-0.02,-0.027 -0.03,-0.057 -0.03,-0.089l0.134,0c0.001,0.025 0.011,0.044 0.028,0.058c0.017,0.013 0.04,0.02 0.069,0.02c0.027,-0 0.048,-0.005 0.061,-0.015c0.014,-0.011 0.021,-0.024 0.021,-0.041Z" style="fill-rule:nonzero;"/></g><g transform="matrix(625.697,-611.383,582.398,596.034,91684.6,42267.8)"><path d="M0.192,-0.471c0.037,-0.045 0.084,-0.067 0.141,-0.067c0.115,-0 0.173,0.066 0.174,0.2l0,0.338l-0.141,-0l0,-0.334c0,-0.031 -0.006,-0.053 -0.019,-0.067c-0.013,-0.015 -0.035,-0.022 -0.065,-0.022c-0.042,-0 -0.072,0.016 -0.09,0.048l-0,0.375l-0.141,0l-0,-0.75l0.141,0l-0,0.279Z" style="fill-rule:nonzero;"/></g><g transform="matrix(677.21,-553.781,527.527,645.104,92065.8,41906.6)"><path d="M0.203,-0l-0.141,-0l-0,-0.528l0.141,-0l0,0.528Zm-0.15,-0.665c0,-0.021 0.007,-0.039 0.021,-0.052c0.015,-0.014 0.034,-0.021 0.058,-0.021c0.024,0 0.044,0.007 0.058,0.021c0.014,0.013 0.021,0.031 0.021,0.052c0,0.021 -0.007,0.039 -0.022,0.053c-0.014,0.013 -0.033,0.02 -0.057,0.02c-0.023,0 -0.043,-0.007 -0.057,-0.02c-0.015,-0.014 -0.022,-0.032 -0.022,-0.053Z" style="fill-rule:nonzero;"/></g><g transform="matrix(744.401,-459.514,437.729,709.111,92477.4,41588.3)"><path d="M0.391,-0l-0.141,-0l0,-0.544l-0.168,0.052l-0,-0.114l0.294,-0.106l0.015,0l0,0.712Z" style="fill-rule:nonzero;"/></g></g><path d="M8100.33,2365.98l-109.019,-155.995l-405.035,282.946l-73.331,-104.929l405.035,-282.947l-107.552,-153.896l81.141,-56.683l289.901,414.821l-81.14,56.683Z" style="fill-rule:nonzero;"/><g transform="matrix(0.969949,-0.243308,0.245306,0.969448,-98449.7,-15730.7)"><g transform="matrix(634.258,-602.497,573.934,604.189,91720.7,42228.3)"><path d="M0.53,-0.259c-0,0.081 -0.019,0.146 -0.056,0.196c-0.037,0.048 -0.086,0.073 -0.149,0.073c-0.054,-0 -0.097,-0.019 -0.13,-0.056l0,0.249l-0.141,0l0,-0.731l0.131,-0l0.005,0.051c0.034,-0.041 0.079,-0.061 0.134,-0.061c0.065,-0 0.115,0.024 0.152,0.072c0.036,0.048 0.054,0.115 0.054,0.199l-0,0.008Zm-0.141,-0.011c-0,-0.049 -0.009,-0.087 -0.027,-0.113c-0.017,-0.027 -0.042,-0.04 -0.075,-0.04c-0.045,-0 -0.075,0.017 -0.092,0.05l0,0.217c0.018,0.035 0.048,0.052 0.093,0.052c0.067,-0 0.101,-0.055 0.101,-0.166Z" style="fill-rule:nonzero;"/></g><g transform="matrix(697.945,-527.407,502.404,664.857,92106.3,41866.5)"><path d="M0.297,0.01c-0.077,-0 -0.14,-0.024 -0.189,-0.072c-0.049,-0.047 -0.073,-0.11 -0.073,-0.189l0,-0.014c0,-0.053 0.01,-0.101 0.031,-0.142c0.02,-0.042 0.049,-0.074 0.087,-0.097c0.038,-0.023 0.081,-0.034 0.129,-0.034c0.072,-0 0.129,0.023 0.17,0.068c0.042,0.046 0.063,0.11 0.063,0.194l-0,0.058l-0.337,-0c0.005,0.034 0.018,0.062 0.041,0.083c0.023,0.021 0.052,0.031 0.088,0.031c0.054,-0 0.096,-0.02 0.127,-0.059l0.069,0.078c-0.021,0.029 -0.049,0.053 -0.086,0.07c-0.036,0.016 -0.076,0.025 -0.12,0.025Zm-0.016,-0.434c-0.028,0 -0.051,0.01 -0.068,0.028c-0.017,0.019 -0.028,0.046 -0.033,0.082l0.196,-0l-0,-0.012c-0.001,-0.031 -0.009,-0.055 -0.025,-0.072c-0.017,-0.017 -0.04,-0.026 -0.07,-0.026Z" style="fill-rule:nonzero;"/></g><g transform="matrix(740.18,-466.283,444.177,705.089,92516.2,41565.8)"><rect x="0.062" y="-0.75" width="0.142" height="0.75" style="fill-rule:nonzero;"/></g></g><g transform="matrix(0.071411,0.997447,-0.996358,0.0866267,40084.9,-91683.8)"><g transform="matrix(698.179,-340.446,365.241,749.028,94334.4,46443)"><path d="M0.032,-0.269c0,-0.052 0.01,-0.099 0.031,-0.14c0.02,-0.041 0.049,-0.073 0.086,-0.095c0.038,-0.023 0.083,-0.034 0.133,-0.034c0.071,-0 0.129,0.022 0.174,0.065c0.045,0.044 0.071,0.103 0.076,0.178l0.001,0.036c-0,0.081 -0.023,0.146 -0.068,0.196c-0.045,0.048 -0.106,0.073 -0.182,0.073c-0.076,-0 -0.137,-0.025 -0.183,-0.073c-0.045,-0.049 -0.068,-0.116 -0.068,-0.2l0,-0.006Zm0.141,0.01c0,0.05 0.01,0.089 0.029,0.115c0.019,0.027 0.046,0.04 0.081,0.04c0.034,-0 0.061,-0.013 0.08,-0.039c0.019,-0.026 0.029,-0.068 0.029,-0.126c-0,-0.049 -0.01,-0.087 -0.029,-0.114c-0.019,-0.027 -0.046,-0.041 -0.081,-0.041c-0.035,0 -0.061,0.014 -0.08,0.041c-0.019,0.026 -0.029,0.068 -0.029,0.124Z" style="fill-rule:nonzero;"/></g><g transform="matrix(660.016,-409.555,439.384,708.086,94813.2,46202.1)"><path d="M0.351,-0.396c-0.019,-0.003 -0.036,-0.004 -0.051,-0.004c-0.053,0 -0.088,0.018 -0.105,0.054l0,0.346l-0.141,-0l0,-0.528l0.133,-0l0.004,0.063c0.029,-0.049 0.068,-0.073 0.118,-0.073c0.016,-0 0.03,0.002 0.044,0.006l-0.002,0.136Z" style="fill-rule:nonzero;"/></g><g transform="matrix(630.003,-454.37,487.463,675.888,95133.8,45999.1)"><path d="M0.203,-0l-0.141,-0l-0,-0.528l0.141,-0l0,0.528Zm-0.15,-0.665c0,-0.021 0.007,-0.039 0.021,-0.052c0.015,-0.014 0.034,-0.021 0.058,-0.021c0.024,0 0.044,0.007 0.058,0.021c0.014,0.013 0.021,0.031 0.021,0.052c0,0.021 -0.007,0.039 -0.022,0.053c-0.014,0.013 -0.033,0.02 -0.057,0.02c-0.023,0 -0.043,-0.007 -0.057,-0.02c-0.015,-0.014 -0.022,-0.032 -0.022,-0.053Z" style="fill-rule:nonzero;"/></g></g></svg>