<?xml version="1.0" encoding="UTF-8" standalone="no"?>
<!DOCTYPE svg PUBLIC "-//W3C//DTD SVG 1.1//EN" "http://www.w3.org/Graphics/SVG/1.1/DTD/svg11.dtd">
<svg width="100%" height="100%" viewBox="0 0 15181 15181" version="1.1" xmlns="http://www.w3.org/2000/svg" xmlns:xlink="http://www.w3.org/1999/xlink" xml:space="preserve" xmlns:serif="http://www.serif.com/" style="fill-rule:evenodd;clip-rule:evenodd;stroke-linecap:round;stroke-linejoin:round;stroke-miterlimit:1.5;">
    <g transform="matrix(1,0,0,1,-1056.5,-8203)">
        <g transform="matrix(0.833892,0,0,0.833892,232.615,1752.01)">
            <circle cx="10090.5" cy="16838.5" r="9102.5" style="fill:white;"/>
        </g>
        <g transform="matrix(-3.45957,0,0,3.593,246713,-82154.9)">
            <path d="M69626.2,27855.9C69768.1,28203 69502.3,28260.9 69504,28523.5C69505.3,28736.6 69799.7,28863.3 69614.5,29082.9" style="fill:none;stroke:rgb(255,227,76);stroke-width:84.03px;"/>
        </g>
        <g transform="matrix(-3.45957,0,0,3.593,246713,-82154.9)">
            <path d="M69703.4,27886C69790.6,28023 69785.1,28186.7 69740,28339.4C69724.7,28391.2 69702.3,28432.4 69704.8,28488.7C69712.3,28652.7 69857.7,28715.4 69838.3,28893.7" style="fill:none;stroke:rgb(255,227,76);stroke-width:84.03px;"/>
        </g>
        <g transform="matrix(-3.45957,0,0,3.593,246713,-82154.9)">
            <path d="M69613.9,27898.4C69645.4,28137 69483.4,28290.9 69395.2,28494.6C69338.1,28626.6 69341.1,28776.9 69329.1,28918.1" style="fill:none;stroke:rgb(255,227,76);stroke-width:84.03px;"/>
        </g>
        <g transform="matrix(6.0851,0.0582613,-0.0685641,7.16117,-415964,-185250)">
            <path d="M69848.2,27741.1C69828.9,27654.5 69830.8,27561.2 69841.8,27454.4C69861.7,27262.4 69961.8,26993.2 69802.1,26818.1C69667.5,26670.5 69415.9,26755.5 69341.1,26922.7C69216.6,27200.9 69260.6,27517.9 69394.3,27811.8C69505.7,28056.5 69888.5,27921.6 69848.2,27741.1Z" style="fill:none;stroke:rgb(6,215,252);stroke-width:42.87px;"/>
        </g>
        <g transform="matrix(-0.11305,-0.993589,-0.993589,0.11305,77761,289630)">
            <path d="M281184,38988.2C281395,38889.4 281851,38826 281483,38516.7C281478,38511.9 280961,38206.2 281336,37683.3C281675,37211 282870,37317.2 282632,38078.2C282548,38347.1 282450,38514.4 282673,38588.3" style="fill:none;stroke:rgb(6,215,252);stroke-width:284.9px;stroke-linejoin:miter;"/>
        </g>
        <g transform="matrix(-0.11305,-0.993589,-0.993589,0.11305,77761,289630)">
            <path d="M281880,38584.7C281981,38745.1 281968,38995.8 281756,39100.5C282194,39109 282259,38899.3 282766,38894.2C282379,38923.1 282192,38585.3 282259,38265.4C281876,38273.1 281981,38652.7 282188,38804.2" style="fill:none;stroke:white;stroke-width:284.9px;stroke-linejoin:miter;"/>
        </g>
        <g transform="matrix(4.95094,0.0474024,-0.0636876,6.65184,-337192,-170526)">
            <path d="M69848.2,27741.1C69828.9,27654.5 69830.8,27561.2 69841.8,27454.4C69861.7,27262.4 69961.8,26993.2 69802.1,26818.1C69667.5,26670.5 69415.9,26755.5 69341.1,26922.7C69216.6,27200.9 69260.6,27517.9 69394.3,27811.8C69505.7,28056.5 69888.5,27921.6 69848.2,27741.1Z" style="fill:rgb(6,215,252);"/>
        </g>
        <g transform="matrix(-8.13075,0,0,10.56,578163,-274143)">
            <path d="M70387,27210.5C70408,27220.4 70428.5,27217.7 70446.7,27202.7" style="fill:none;stroke:black;stroke-width:7.2px;"/>
        </g>
        <g transform="matrix(6.80752,0,0,6.79758,-470369,-168393)">
            <circle cx="69828.8" cy="26620.7" r="62.67"/>
        </g>
        <g transform="matrix(6.80752,0,0,6.79758,-469003,-168277)">
            <circle cx="69828.8" cy="26620.7" r="62.67"/>
        </g>
        <g transform="matrix(5.42157,4.71811,-4.95348,5.67542,-233682,-461227)">
            <ellipse cx="68345.7" cy="26644.3" rx="19.739" ry="31.335" style="fill:white;"/>
        </g>
        <g transform="matrix(5.42157,4.71811,-4.95348,5.67542,-232313,-461152)">
            <ellipse cx="68345.7" cy="26644.3" rx="19.739" ry="31.335" style="fill:white;"/>
        </g>
        <g transform="matrix(6.80752,0,0,6.79758,-460369,-168651)">
            <circle cx="68378.6" cy="26688.8" r="13.165" style="fill:white;"/>
        </g>
        <g transform="matrix(6.80752,0,0,6.79758,-458965,-168520)">
            <circle cx="68378.6" cy="26688.8" r="13.165" style="fill:white;"/>
        </g>
        <g transform="matrix(0.734657,0,0,0.734657,-15942.4,-2908.65)">
            <circle cx="37591.6" cy="21533.4" r="2321.59" style="fill:none;stroke:rgb(6,215,252);stroke-width:387.94px;"/>
        </g>
        <g transform="matrix(0.958427,0,0,0.958427,-25156.7,-2619.63)">
            <circle cx="37591.6" cy="21533.4" r="2321.59" style="fill:none;stroke:rgb(6,215,252);stroke-width:297.36px;"/>
        </g>
        <g transform="matrix(0.439028,0,0,0.424866,-35064.1,-2729.16)">
            <circle cx="92531" cy="43214" r="1785" style="fill:none;stroke:black;stroke-width:454.04px;stroke-linecap:square;stroke-linejoin:miter;"/>
        </g>
        <g transform="matrix(0.439028,0,0,0.424866,-28940.7,-5452.94)">
            <circle cx="92531" cy="43214" r="1785" style="fill:none;stroke:black;stroke-width:454.04px;stroke-linecap:square;stroke-linejoin:miter;"/>
        </g>
        <g transform="matrix(0.572752,0,0,0.554276,-42114.2,-5938.88)">
            <circle cx="92531" cy="43214" r="1785" style="fill:none;stroke:black;stroke-width:403.85px;stroke-linecap:square;stroke-linejoin:miter;"/>
        </g>
        <g transform="matrix(0.439028,0,0,0.424866,-35064.1,-2729.16)">
            <path d="M94105.7,42373.5C93795.4,41792.1 93190,41429 92531,41429C91766,41429 91086.1,41916.4 90840.5,42640.9C91086.1,41916.4 91766,41429 92531,41429C93190,41429 93795.4,41792.1 94105.7,42373.5Z" style="fill:none;stroke:rgb(251,193,4);stroke-width:454.04px;stroke-linecap:square;stroke-linejoin:miter;"/>
        </g>
        <g transform="matrix(0.439028,0,0,0.424866,-28940.7,-5452.94)">
            <path d="M94105.7,42373.5C93795.4,41792.1 93190,41429 92531,41429C91766,41429 91086.1,41916.4 90840.5,42640.9C91086.1,41916.4 91766,41429 92531,41429C93190,41429 93795.4,41792.1 94105.7,42373.5Z" style="fill:none;stroke:rgb(251,193,4);stroke-width:454.04px;stroke-linecap:square;stroke-linejoin:miter;"/>
        </g>
        <g transform="matrix(0.572752,0,0,0.554276,-42114.2,-5938.88)">
            <path d="M94105.7,42373.5C93795.4,41792.1 93190,41429 92531,41429C91766,41429 91086.1,41916.4 90840.5,42640.9C91086.1,41916.4 91766,41429 92531,41429C93190,41429 93795.4,41792.1 94105.7,42373.5Z" style="fill:none;stroke:rgb(251,193,4);stroke-width:403.85px;stroke-linecap:square;stroke-linejoin:miter;"/>
        </g>
    </g>
</svg>
